<?xml version="1.0" encoding="utf-8"?>
<!-- Generator: Adobe Illustrator 26.0.2, SVG Export Plug-In . SVG Version: 6.00 Build 0)  -->
<svg version="1.1" id="Layer_1" xmlns="http://www.w3.org/2000/svg" xmlns:xlink="http://www.w3.org/1999/xlink" x="0px" y="0px"
	 viewBox="0 0 1120.6 777.9" style="enable-background:new 0 0 1120.6 777.9;" xml:space="preserve">
<style type="text/css">
	.st0{fill:#B71C1C;}
	.st1{fill:#F2F2F2;}
	.st2{fill:#3F3D56;}
	.st3{fill:#2F2E41;}
	.st4{fill:#FBC02D;}
</style>
<circle class="st0" cx="212.6" cy="103" r="64"/>
<path class="st1" d="M524,343.1c0,151-89.8,203.7-200.5,203.7s-200.5-52.7-200.5-203.7S323.5,0,323.5,0S524,192.1,524,343.1z"/>
<polygon class="st2" points="316.2,523.8 318.2,397.4 403.7,241 318.5,377.6 319.5,320.7 378.4,207.6 319.7,305.7 319.7,305.7 
	321.4,203.5 384.4,113.4 321.6,187.4 322.7,0 316.1,248.1 316.7,237.9 252.5,139.7 315.6,257.5 309.7,371.7 309.5,368.6 
	235.6,265.3 309.3,379.3 308.5,393.6 308.4,393.8 308.4,395 293.3,684.6 313.5,684.6 316,535 389.5,421.3 "/>
<path class="st1" d="M1120.6,405c0,123.6-73.5,166.8-164.1,166.8S792.3,528.6,792.3,405s164.1-280.9,164.1-280.9
	S1120.6,281.4,1120.6,405z"/>
<polygon class="st2" points="950.5,552.8 952.2,449.4 1022.1,321.4 952.4,433.2 953.2,386.6 1001.4,294 953.4,374.3 953.4,374.3 
	954.7,290.7 1006.4,217 955,277.5 955.8,124.1 950.5,327.2 950.9,318.8 898.4,238.5 950.1,334.9 945.2,428.3 945,425.8 884.5,341.3 
	944.8,434.6 944.2,446.3 944.1,446.5 944.2,447.4 931.8,684.5 948.3,684.5 950.3,562 1010.5,469 "/>
<ellipse class="st2" cx="554.6" cy="680.5" rx="554.6" ry="28"/>
<ellipse class="st2" cx="892.4" cy="726.8" rx="95" ry="4.8"/>
<ellipse class="st2" cx="548.7" cy="773.1" rx="95" ry="4.8"/>
<ellipse class="st2" cx="287.9" cy="734.3" rx="217" ry="11"/>
<rect x="98.6" y="638" transform="matrix(1.178227e-02 -0.9999 0.9999 1.178227e-02 -531.3184 762.4777)" class="st3" width="43" height="24"/>
<ellipse transform="matrix(1.178222e-02 -0.9999 0.9999 1.178222e-02 -544.7491 791.0734)" class="st3" cx="127.9" cy="671.1" rx="7.5" ry="20"/>
<image style="overflow:visible;" width="360" height="360" xlink:href="../Pictures/Saved Pictures/BBT Monstrosities/Sloth man.png"  transform="matrix(0.4926 8.558418e-02 -8.558418e-02 0.4926 129.1375 446.4236)">
</image>
<path class="st4" d="M217.6,610.3c0,55.1-32.7,74.3-73.1,74.3c-0.9,0-1.9,0-2.8,0c-1.9,0-3.7-0.1-5.6-0.3
	c-36.5-2.6-64.8-22.8-64.8-74c0-53,67.7-119.9,72.8-124.8l0,0c0.2-0.2,0.3-0.3,0.3-0.3S217.6,555.3,217.6,610.3z"/>
<path class="st2" d="M141.8,676.2l26.7-37.4l-26.8,41.5l-0.1,4.3c-1.9,0-3.7-0.1-5.6-0.3l2.9-55.1l0-0.4l0-0.1l0.3-5.2L112.4,582
	l27,37.7l0.1,1.1l2.2-41.6l-23-43l23.3,35.7l2.3-86.3l0-0.3v0.3l-0.4,68.1l22.9-27l-23,32.8l-0.6,37.3l21.4-35.8L143,602.2
	l-0.3,20.7l31.1-49.8l-31.2,57L141.8,676.2z"/>
<rect x="702.1" y="630.8" transform="matrix(0.9559 -0.2938 0.2938 0.9559 -160.1105 238.5492)" class="st3" width="24" height="43"/>
<rect x="748" y="616.7" transform="matrix(0.9559 -0.2938 0.2938 0.9559 -153.9435 251.4012)" class="st3" width="24" height="43"/>
<ellipse transform="matrix(0.9559 -0.2938 0.2938 0.9559 -164.9753 243.5184)" class="st3" cx="728.2" cy="671" rx="20" ry="7.5"/>
<ellipse transform="matrix(0.9559 -0.2938 0.2938 0.9559 -158.5407 256.2462)" class="st3" cx="773.8" cy="655.9" rx="20" ry="7.5"/>
<path class="st4" d="M571.6,600.3c0,50.6-30.1,68.2-67.1,68.2c-0.9,0-1.7,0-2.6,0c-1.7,0-3.4-0.1-5.1-0.2
	c-33.5-2.4-59.5-20.9-59.5-67.9c0-48.7,62.2-110.1,66.9-114.6l0,0c0.2-0.2,0.3-0.3,0.3-0.3S571.6,549.7,571.6,600.3z"/>
<path class="st2" d="M502,660.7l24.6-34.3L502,664.5l-0.1,3.9c-1.7,0-3.4-0.1-5.1-0.2l2.6-50.6l0-0.4l0-0.1l0.2-4.8L475,574.2
	l24.8,34.6l0.1,1l2-38.2l-21.1-39.4l21.4,32.7l2.1-79.2l0-0.3v0.3l-0.3,62.5l21-24.8l-21.1,30.2l-0.6,34.2l19.6-32.8l-19.7,37.9
	l-0.3,19l28.5-45.7l-28.6,52.3L502,660.7z"/>
<image style="overflow:visible;" width="360" height="360" xlink:href="../Pictures/Saved Pictures/BBT Monstrosities/Artboard 1Poker face N°1 AI.png"  transform="matrix(-0.5338 0 0 0.5338 773.7715 532.1224)">
</image>
<path class="st4" d="M835.6,621.3c0,55.1-32.7,74.3-73.1,74.3c-0.9,0-1.9,0-2.8,0c-1.9,0-3.7-0.1-5.6-0.3
	c-36.5-2.6-64.8-22.8-64.8-74c0-53,67.7-119.9,72.8-124.8l0,0c0.2-0.2,0.3-0.3,0.3-0.3S835.6,566.3,835.6,621.3z"/>
<path class="st2" d="M759.8,687.2l26.7-37.4l-26.8,41.5l-0.1,4.3c-1.9,0-3.7-0.1-5.6-0.3l2.9-55.1l0-0.4l0-0.1l0.3-5.2L730.4,593
	l27,37.7l0.1,1.1l2.2-41.6l-23-43l23.3,35.7l2.3-86.3l0-0.3v0.3l-0.4,68.1l22.9-27l-23,32.8l-0.6,37.3l21.4-35.8L761,613.2
	l-0.3,20.7l31.1-49.8l-31.2,57L759.8,687.2z"/>
</svg>
